<svg xmlns="http://www.w3.org/2000/svg" viewBox="0 0 1024 1024">
  <defs>
    <linearGradient id="icn-bg" x1="0" y1="0" x2="0.9" y2="1">
      <stop offset="0%" stop-color="#6A5DE0"/>
      <stop offset="55%" stop-color="#7B6FF0"/>
      <stop offset="100%" stop-color="#9A8FFF"/>
    </linearGradient>
    <radialGradient id="icn-halo" cx="50%" cy="45%" r="58%">
      <stop offset="0%" stop-color="#D2CCFF" stop-opacity="0.24"/>
      <stop offset="65%" stop-color="#A89BFF" stop-opacity="0.08"/>
      <stop offset="100%" stop-color="#A89BFF" stop-opacity="0"/>
    </radialGradient>
    <linearGradient id="icn-crown" x1="0" y1="0" x2="1" y2="1">
      <stop offset="0%" stop-color="#FFFFFF"/>
      <stop offset="42%" stop-color="#E8E5FF"/>
      <stop offset="100%" stop-color="#9E94FF"/>
    </linearGradient>
    <linearGradient id="icn-crown-shadow" x1="0" y1="0" x2="1" y2="1">
      <stop offset="0%" stop-color="#D0CAFF"/>
      <stop offset="100%" stop-color="#7167D8"/>
    </linearGradient>
    <linearGradient id="icn-pavilion-left" x1="0" y1="0" x2="1" y2="1">
      <stop offset="0%" stop-color="#F0EEFF"/>
      <stop offset="100%" stop-color="#A49BFF"/>
    </linearGradient>
    <linearGradient id="icn-pavilion-right" x1="1" y1="0" x2="0" y2="1">
      <stop offset="0%" stop-color="#D7D2FF"/>
      <stop offset="100%" stop-color="#665BD0"/>
    </linearGradient>
    <linearGradient id="icn-star" x1="0" y1="0" x2="1" y2="1">
      <stop offset="0%" stop-color="#FFFFFF"/>
      <stop offset="55%" stop-color="#F5F3FF"/>
      <stop offset="100%" stop-color="#C9C3FF"/>
    </linearGradient>
    <g id="icon-gem">
      <rect width="1024" height="1024" rx="224" fill="url(#icn-bg)"/>
      <rect width="1024" height="1024" rx="224" fill="url(#icn-halo)"/>
      <rect x="14" y="14" width="996" height="996" rx="210" fill="none" stroke="#BFEFFF" stroke-opacity="0.2" stroke-width="5"/>
      <g transform="translate(512 512) scale(1.1) translate(-512 -512)">
      <ellipse cx="512" cy="855" rx="248" ry="28" fill="#D2CCFF" fill-opacity="0.16"/>
      <g stroke="#F5F3FF" stroke-opacity="0.42" stroke-width="5" stroke-linejoin="round">
        <polygon points="214,356 326,184 698,184 810,356 512,474" fill="url(#icn-crown)"/>
        <polygon points="214,356 326,184 512,356" fill="#FFFFFF" fill-opacity="0.42"/>
        <polygon points="326,184 698,184 512,356" fill="#FFFFFF" fill-opacity="0.78"/>
        <polygon points="698,184 810,356 512,356" fill="url(#icn-crown-shadow)"/>
        <polygon points="214,356 512,356 512,474" fill="#FFFFFF" fill-opacity="0.78"/>
        <polygon points="512,356 810,356 512,474" fill="#8FD8FF" fill-opacity="0.72"/>
        <polygon points="214,356 512,474 512,850" fill="url(#icn-pavilion-left)"/>
        <polygon points="214,356 512,474 366,598" fill="#FFFFFF" fill-opacity="0.48"/>
        <polygon points="512,474 810,356 658,598" fill="url(#icn-pavilion-right)"/>
        <polygon points="512,474 658,598 512,850" fill="#5147B8" fill-opacity="0.66"/>
        <polygon points="366,598 512,474 512,850" fill="#DED9FF" fill-opacity="0.34"/>
      </g>
      <g fill="url(#icn-star)">
        <path d="M814 126 L829 178 L881 193 L829 208 L814 260 L799 208 L747 193 L799 178 Z"/>
        <path d="M192 252 L202 286 L236 296 L202 306 L192 340 L182 306 L148 296 L182 286 Z" opacity="0.86"/>
        <path d="M742 714 L750 740 L776 748 L750 756 L742 782 L734 756 L708 748 L734 740 Z" opacity="0.74"/>
      </g>
      <path d="M286 320 L360 220" stroke="#FFFFFF" stroke-opacity="0.86" stroke-width="10" stroke-linecap="round"/>
      </g>
    </g>
  </defs>
  <use href="#icon-gem"/>
</svg>
